<svg width="20" height="20" viewBox="0 0 20 20" fill="none" xmlns="http://www.w3.org/2000/svg">
<g clip-path="url(#clip0_49_710)">
<path d="M13.3333 6.66683V5.00016H12.5V3.3335H11.6667V1.66683H10.8333V0.833496H9.16667V1.66683H8.33334V3.3335H7.5V5.00016H6.66667V6.66683H0.833336V8.3335H1.66667V9.16683H2.5V10.0002H3.33334V10.8335H4.16667V11.6668H5V15.8335H4.16667V19.1668H5.83334V18.3335H7.5V17.5002H9.16667V16.6668H10.8333V17.5002H12.5V18.3335H14.1667V19.1668H15.8333V15.8335H15V11.6668H15.8333V10.8335H16.6667V10.0002H17.5V9.16683H18.3333V8.3335H19.1667V6.66683H13.3333ZM16.6667 9.16683H15.8333V10.0002H15V10.8335H14.1667V11.6668H13.3333V15.8335H14.1667V16.6668H12.5V15.8335H10.8333V15.0002H9.16667V15.8335H7.5V16.6668H5.83334V15.8335H6.66667V11.6668H5.83334V10.8335H5V10.0002H4.16667V9.16683H3.33334V8.3335H6.66667V7.50016H7.5V6.66683H8.33334V5.00016H9.16667V3.3335H10.8333V5.00016H11.6667V6.66683H12.5V7.50016H13.3333V8.3335H16.6667V9.16683Z" fill="#EDEAE1"/>
</g>
<defs>
<clipPath id="clip0_49_710">
<rect width="20" height="20" fill="white"/>
</clipPath>
</defs>
</svg>
