<svg width="16" height="20" viewBox="0 0 16 20" fill="none" xmlns="http://www.w3.org/2000/svg">
<path d="M7.94897 4.80078C8.47289 6.91903 9.41693 8.22507 10.5886 9.03613C11.2303 9.48031 11.919 9.75786 12.5994 9.94629C12.0593 10.1089 11.5723 10.3131 11.1335 10.5537C9.91193 11.2237 9.09424 12.1605 8.55347 13.208C8.30431 13.6906 8.11591 14.1979 7.97046 14.7129C7.47881 12.8888 6.67198 11.724 5.67261 10.9746C5.05267 10.5098 4.38155 10.2242 3.7146 10.0342C4.19735 9.87225 4.63209 9.67253 5.02222 9.43555C6.13994 8.75651 6.85702 7.81073 7.32788 6.76855C7.61283 6.13776 7.80735 5.46927 7.94897 4.80078Z" fill="#F7CB82" stroke="white"/>
</svg>
